  <svg
        width="180.90000000000003"
        height="50.93025177619128"
        viewBox="0 0 369.9130434782609 71.27104116522747"
        class="css-1j8o68f"
      >
        <defs id="SvgjsDefs1828"></defs>
        <g
          id="SvgjsG1829"
          featurekey="Df7oLJ-0"
          transform="matrix(1.585144927536232,0,0,1.585144927536232,0,-2.4381964534953022)"
          fill="#558D96"
        >
          <title xmlns="http://www.w3.org/2000/svg">e commerce_22</title>
          <path
            xmlns="http://www.w3.org/2000/svg"
            d="M20,40.5a3,3,0,1,0,3,3A3,3,0,0,0,20,40.5Zm0,4a1,1,0,1,1,1-1A1,1,0,0,1,20,44.5Zm13-4a3,3,0,1,0,3,3A3,3,0,0,0,33,40.5Zm0,4a1,1,0,1,1,1-1A1,1,0,0,1,33,44.5Zm15-25a8,8,0,0,0-8-8H36.64a13,13,0,0,0-25.28,0H8a8,8,0,0,0,0,16H12l3.43,10.32a1,1,0,0,0,.95.68H35.5a1,1,0,0,0,.93-.64l4-10.38A8,8,0,0,0,48,19.5Zm-13.18,17H17.05l-4.33-13H39.87ZM41.3,25.36l1-2.5a1,1,0,0,0-.93-1.36H12.05l-1.43-4.32a1,1,0,0,0-.95-.68h-5a1,1,0,0,0,0,2H9l1.43,4.31v0l.89,2.67H8a6,6,0,0,1,0-12h4.18a1,1,0,0,0,1-.83,11,11,0,0,1,21.66,0,1,1,0,0,0,1,.83H40a6,6,0,0,1,1.3,11.86Z"
          ></path>
        </g>
        <g
          id="SvgjsG1830"
          featurekey="Ua4uQk-0"
          transform="matrix(2.635299567485319,0,0,2.635299567485319,93.62823139455021,-3.1793248552788835)"
          fill="white"
        >
      
        </g>
      </svg>